<svg width="180" height="180" viewBox="0 0 180 180" fill="none" xmlns="http://www.w3.org/2000/svg">
<rect width="180" height="180" fill="#F5F747"/>
<path fill-rule="evenodd" clip-rule="evenodd" d="M180 31L180 1L150 0.999999L120 0.999997L120 31L90 31L90 61L60 61L60 91L60 121L90 121L120 121L120 151L90 151L90 181L120 181L150 181L150 151L150 121L120 121L120 91L120 61L150 61L150 91L180 91L180 61L180 31ZM60 0.999995L60 31L30 31L30 0.999993L60 0.999995ZM30 31L30 61L-2.62268e-06 61L-1.31134e-06 31L30 31ZM30 181L30 151L-6.55671e-06 151L-7.86805e-06 181L30 181Z" fill="#0D2CD2"/>
</svg>
