<svg width="1230" height="180" viewBox="0 0 1230 180" fill="none" xmlns="http://www.w3.org/2000/svg">
<path d="M1229.58 0V180H1199.58V150H1109.58V120H1199.58V30H1109.58V0H1229.58ZM1109.58 120H1079.58V30H1109.58V120ZM1079.58 180V150H1109.58V180H1079.58Z" fill="black"/>
<path d="M929.66 120H959.66V150H929.66V180H899.66V0H929.66V120ZM1019.66 0H1049.66V180H1019.66V90H989.66V60H1019.66V0ZM959.66 120V90H989.66V120H959.66Z" fill="black"/>
<path d="M779.719 0H809.719V30H779.719V0ZM749.719 60V30H779.719V60H749.719ZM809.719 30H839.719V60H809.719V30ZM719.719 60H749.719V180H719.719V60ZM839.719 60H869.719V180H839.719V60Z" fill="black"/>
<path d="M569.786 30V0H659.786V30H569.786ZM539.786 180V30H569.786V120H659.786V30H689.786V180H659.786V150H569.786V180H539.786Z" fill="black"/>
<path d="M359.859 30V0H509.859V30H449.859V180H419.859V30H359.859Z" fill="black"/>
<path d="M209.924 30V0H299.924V30H209.924ZM179.924 180V30H209.924V120H299.924V30H329.924V180H299.924V150H209.924V180H179.924Z" fill="black"/>
<path d="M120 150V180H0V0H120V30H30V60H120V90H30V150H120ZM120 90H150V150H120V90Z" fill="black"/>
</svg>
