<svg width="107" height="98" viewBox="0 0 107 98" fill="none" xmlns="http://www.w3.org/2000/svg">
<path d="M11.76 98C9.14667 98 6.90667 97.16 5.04 95.48C3.26667 93.7067 2.1 90.86 1.54 86.94C1.07333 82.9267 0.84 71.0267 0.84 51.24C0.84 31.36 1.16667 18.3867 1.82 12.32C2.56667 4.47999 5.88 0.466662 11.76 0.279998C18.48 0.0933282 46.34 -6.67572e-06 95.34 -6.67572e-06C100.847 -6.67572e-06 103.6 3.5 103.6 10.5C103.6 16.0067 101.173 18.76 96.32 18.76H65.52C63.56 18.76 61.9733 19.4133 60.76 20.72C59.64 22.0267 59.08 23.7067 59.08 25.76V35.84C59.08 38.64 60.34 40.04 62.86 40.04H88.34C89.8333 40.04 90.9533 40.18 91.7 40.46C92.54 40.74 93.2867 41.58 93.94 42.98C94.5933 44.2867 94.92 46.48 94.92 49.56C94.92 52.64 94.36 54.6933 93.24 55.72C92.2133 56.7467 90.4867 57.26 88.06 57.26H65.24C62.9067 57.26 61.2733 57.8667 60.34 59.08C59.5 60.2 59.08 61.9733 59.08 64.4V71.26C59.08 75.2733 60.9933 77.28 64.82 77.28H99.68C101.36 77.28 102.853 77.7933 104.16 78.82C105.467 79.7533 106.12 81.9 106.12 85.26C106.12 88.5267 105.327 91.4667 103.74 94.08C102.153 96.6933 100.287 98 98.14 98H11.76Z" fill="black"/>
</svg>
