<svg width="180" height="180" viewBox="0 0 180 180" fill="none" xmlns="http://www.w3.org/2000/svg">
<path fill-rule="evenodd" clip-rule="evenodd" d="M0 0H60V60C26.8629 60 0 33.1371 0 0ZM120 60H60H0C0 93.1371 26.8629 120 60 120H0C0 153.137 26.8629 180 60 180V120C60 153.137 86.8629 180 120 180V120C120 153.137 146.863 180 180 180V120V60V0H120H60C60 33.1371 86.8629 60 120 60ZM120 60H180C146.863 60 120 33.1371 120 0V60ZM120 60V120C86.8629 120 60 93.1371 60 60V120H120H180C146.863 120 120 93.1371 120 60Z" fill="#EDEDED"/>
</svg>
