<svg width="263" height="98" viewBox="0 0 263 98" fill="none" xmlns="http://www.w3.org/2000/svg">
<path d="M11.9642 26.7402H7.11238V47.3606H0V0.440918H7.11238V19.2419H11.9642V0.440918H19.0766V47.4157H11.9642V26.7402Z" fill="#F726F3"/>
<path d="M31.3162 47.9122H29.9379C24.259 47.9122 21.2266 44.8247 21.2266 39.0355V29.6075H28.2838V37.8226C28.2838 39.9728 29.0006 41.1307 30.5995 41.1307C32.3086 41.1307 32.9151 39.9728 32.9151 37.1058V36.0583C32.9151 32.695 32.5843 31.5372 29.993 28.174L25.5271 22.2746C22.4947 18.36 21.6125 15.3276 21.6125 10.6411V9.15249C21.6125 2.92226 24.7552 0.00012207 30.3789 0.00012207H31.7022C37.5465 0.00012207 39.8621 2.59146 39.8621 8.16007V15.8789H32.9703V9.09736C32.9703 7.49845 32.6395 6.34062 30.9303 6.34062C29.2211 6.34062 28.8352 7.38818 28.8352 9.64871V10.5309C28.8352 13.1773 29.3314 14.6108 31.7573 17.7535L36.2784 23.5978C39.4762 27.788 40.5237 30.1588 40.5237 35.4518V36.9404C40.5237 43.8323 37.5465 47.9122 31.3162 47.9122Z" fill="#F726F3"/>
<path d="M58.7741 0.440918V7.27763H49.6768V19.5727H56.7892V26.6851H49.6768V40.2482H59.16V47.3606H42.5645V0.440918H58.7741Z" fill="#F726F3"/>
<path d="M78.4013 38.5389H73.2187L72.2814 47.3604H65.8857L71.6198 0.38562H80.0554L86.1753 47.3604H79.2835L78.4013 38.5389ZM77.6294 31.5368L75.7549 14.1693L73.9354 31.5368H77.6294Z" fill="#F726F3"/>
<path d="M94.502 47.4157H87.3896V0.440918H98.9679C103.71 0.440918 106.08 2.4809 106.08 7.71871V16.0441C106.08 19.9586 104.261 21.4473 102.993 22.0537C104.592 22.7705 106.08 24.0386 106.08 27.1813V43.6666C106.08 45.5411 106.466 46.4233 106.797 47.1401V47.4709H99.7398C99.409 46.9747 99.0231 46.1476 99.0231 43.6114V29.3867C99.0231 27.2915 98.6371 26.4094 96.3766 26.4094H94.5572L94.502 47.4157ZM94.502 19.7381H96.3766C98.3615 19.7381 98.9679 18.47 98.9679 16.3749V9.81383C98.9679 7.77384 98.5269 6.78142 96.3766 6.78142H94.502V19.7381Z" fill="#F726F3"/>
<path d="M120.47 7.22249V47.3606H113.413V7.22249H107.403V0.440918H126.48V7.27763L120.47 7.22249Z" fill="#F726F3"/>
<path d="M145.556 38.5389H140.373L139.436 47.3604H133.04L138.774 0.38562H147.21L153.33 47.3604H146.438L145.556 38.5389ZM144.784 31.5368L142.909 14.1693L141.09 31.5368H144.784Z" fill="#F726F3"/>
<path d="M160.938 0.440918L167.058 25.6375V0.440918H173.564V47.4157H167.775L160.938 20.3997V47.4157H154.487V0.440918H160.938Z" fill="#F726F3"/>
<path d="M176.211 0.440918H187.183C193.303 0.440918 195.177 3.91441 195.177 9.48302V38.098C195.177 43.832 193.027 47.4157 187.183 47.4157H176.266V0.440918H176.211ZM183.378 40.579H185.088C187.238 40.579 187.844 39.4212 187.844 36.9401V10.4754C187.844 7.77384 187.128 6.83655 185.363 6.83655H183.323V40.579H183.378Z" fill="#F726F3"/>
<path d="M0 49.8418H10.9167C17.0366 49.8418 18.9112 53.3153 18.9112 58.8839V87.4988C18.9112 93.2329 16.761 96.8166 10.9167 96.8166H0V49.8418ZM7.11238 90.035H8.82156C10.9718 90.035 11.5783 88.8772 11.5783 86.3961V59.9315C11.5783 57.2299 10.8615 56.2926 9.09723 56.2926H7.05725V90.035H7.11238Z" fill="#F726F3"/>
<path d="M37.712 49.8418V56.6785H28.6148V68.9736H35.7272V76.0859H28.6148V89.6491H38.098V96.7615H21.4473V49.8418H37.712Z" fill="#F726F3"/>
<path d="M49.4549 97.3131H48.0765C42.3976 97.3131 39.3652 94.2255 39.3652 88.4364V79.0083H46.4225V87.2234C46.4225 89.3737 47.1392 90.5315 48.7381 90.5315C50.4473 90.5315 51.0538 89.3737 51.0538 86.5067V85.4591C51.0538 82.0959 50.723 80.938 48.1317 77.5748L43.6106 71.7857C40.5782 67.8711 39.696 64.8387 39.696 60.1522V58.6636C39.696 52.4334 42.8387 49.5112 48.4625 49.5112H49.7857C55.6851 49.5112 57.9457 52.1026 57.9457 57.6712V65.39H51.0538V58.6085C51.0538 57.0096 50.723 55.8517 49.0138 55.8517C47.3046 55.8517 46.9187 56.8993 46.9187 59.1598V60.042C46.9187 62.6884 47.4149 64.1219 49.8408 67.2646L54.3619 73.1089C57.5597 77.2992 58.6073 79.67 58.6073 84.9629V86.4515C58.6624 93.2331 55.6851 97.3131 49.4549 97.3131Z" fill="#F726F3"/>
<path d="M67.8155 96.8166H60.7031V49.8418H67.8155V96.8166Z" fill="#F726F3"/>
<path d="M77.0779 97.4782C72.8877 97.4782 70.2412 93.729 70.2412 88.8771V59.4903C70.2412 54.2525 72.2812 49.4006 79.0076 49.4006H80.386C88.0497 49.4006 88.9319 54.3628 88.9319 59.9314V64.7281H81.9849V59.4352C81.9849 57.34 81.4887 56.2373 79.7244 56.2373C78.2358 56.2373 77.519 57.3952 77.519 59.4352V86.8923C77.519 89.0977 78.4012 90.2555 79.8347 90.2555C81.6541 90.2555 82.4811 88.9874 82.4811 87.2231V75.4794H79.2833V68.2567H89.2627V96.8165H85.2379C85.1827 96.5409 84.6314 94.2252 84.0249 92.1852C83.5287 93.7841 81.1028 97.423 77.519 97.423H77.0779V97.4782Z" fill="#F726F3"/>
<path d="M98.1949 49.8418L104.315 75.0384V49.8418H110.821V96.8166H105.032L98.1949 69.8006V96.8166H91.7441V49.8418H98.1949Z" fill="#F726F3"/>
<path d="M129.457 97.3131H128.078C122.4 97.3131 119.367 94.2255 119.367 88.4364V79.0083H126.424V87.2234C126.424 89.3737 127.141 90.5315 128.74 90.5315C130.449 90.5315 131.056 89.3737 131.056 86.5067V85.4591C131.056 82.0959 130.725 80.938 128.134 77.5748L123.613 71.7857C120.58 67.8711 119.698 64.8387 119.698 60.1522V58.6636C119.698 52.4334 122.841 49.5112 128.464 49.5112H129.788C135.632 49.5112 137.948 52.1026 137.948 57.6712V65.39H131.056V58.6085C131.056 57.0096 130.725 55.8517 129.016 55.8517C127.307 55.8517 126.921 56.8993 126.921 59.1598V60.042C126.921 62.6884 127.417 64.1219 129.843 67.2646L134.364 73.1089C137.562 77.2992 138.609 79.67 138.609 84.9629V86.4515C138.664 93.2331 135.687 97.3131 129.457 97.3131Z" fill="#F726F3"/>
<path d="M152.338 87.2787V76.362H159.34V87.2235C159.34 92.2959 157.686 97.3683 150.794 97.3683H149.195C141.972 97.3683 140.429 92.1857 140.429 87.4441V58.774C140.429 53.9773 142.524 49.3459 148.975 49.3459H150.629C158.458 49.3459 159.34 54.5286 159.34 59.1048V67.4853H152.338V59.2151C152.338 57.1751 151.731 56.1275 149.912 56.1275C148.148 56.1275 147.706 57.1199 147.706 59.2151V87.1133C147.706 89.2084 148.423 90.3111 149.967 90.3111C151.731 90.4765 152.338 89.2084 152.338 87.2787Z" fill="#F726F3"/>
<path d="M173.62 76.1962H168.768V96.8166H161.655V49.8418H168.768V68.6427H173.62V49.8418H180.732V96.8166H173.62V76.1962Z" fill="#F726F3"/>
<path d="M202.73 86.3409C202.73 92.902 200.524 97.3679 193.632 97.3679H192.419C185.583 97.3679 183.212 92.902 183.212 86.3409V60.207C183.212 53.7011 185.693 49.4006 192.364 49.4006H193.577C200.524 49.4006 202.73 53.7011 202.73 60.1519V86.3409ZM195.452 59.8211C195.452 57.34 194.625 56.2373 192.971 56.2373C191.151 56.2373 190.435 57.4503 190.435 59.8211V86.8371C190.435 88.8771 190.986 90.4209 193.026 90.4209C194.9 90.4209 195.452 88.822 195.452 86.8371V59.8211Z" fill="#F726F3"/>
<path d="M224.509 86.3409C224.509 92.902 222.304 97.3679 215.412 97.3679H214.199C207.362 97.3679 204.991 92.902 204.991 86.3409V60.207C204.991 53.7011 207.472 49.4006 214.144 49.4006H215.357C222.304 49.4006 224.509 53.7011 224.509 60.1519V86.3409ZM217.231 59.8211C217.231 57.34 216.404 56.2373 214.75 56.2373C212.931 56.2373 212.214 57.4503 212.214 59.8211V86.8371C212.214 88.8771 212.765 90.4209 214.805 90.4209C216.68 90.4209 217.231 88.822 217.231 86.8371V59.8211Z" fill="#F726F3"/>
<path d="M234.102 49.8418V89.5388H242.813V96.8166H226.989V49.8418H234.102Z" fill="#F726F3"/>
<path fill-rule="evenodd" clip-rule="evenodd" d="M252.792 49.3464C247.499 49.3464 243.144 53.6469 243.144 58.995C243.144 64.288 247.444 68.6436 252.792 68.6436C258.14 68.6436 262.441 64.3431 262.441 58.995C262.386 53.6469 258.085 49.3464 252.792 49.3464ZM254.392 58.1119C254.998 57.8362 255.384 57.4503 255.66 57.1746C256.156 56.6233 256.321 55.9616 256.321 55.3C256.321 54.8038 256.156 53.7563 255.274 53.0395C254.667 52.5433 254.116 52.3228 252.793 52.3228H252.131H252.076H249.319V65.2243H257.093V62.7432C257.148 60.3724 256.377 58.7735 254.392 58.1119ZM255.384 64.5075H253.951V60.207H252.352V64.5075H251.139V52.9292H252.407C252.903 52.9292 253.62 53.0395 254.116 53.646C254.392 53.9768 254.557 54.4179 254.612 54.8038H252.352V55.4654H254.612C254.612 55.8514 254.502 56.3476 254.116 56.8438C253.785 57.2849 253.179 57.6708 252.352 57.6708V58.3324C254.557 58.3324 255.384 59.7659 255.384 62.4675V64.5075Z" fill="#F726F3"/>
</svg>
