<svg width="180" height="180" viewBox="0 0 180 180" fill="none" xmlns="http://www.w3.org/2000/svg">
<path d="M123 32V69.0937H121C113.143 55.1835 101 47.7367 86.1429 47.7367C41.1429 47.7367 58.7143 136.396 107.286 136.396C116.571 136.396 124.714 128.809 124.714 112.51C124.714 96.6329 113.857 75.1354 113.857 75.1354L115.857 74.1519C120.286 83.1443 127 99.5835 127 112.37C127 134.008 113.429 143 97.5714 143C64.4286 143 53 108.435 53 91.9962C53 57.5722 73.8571 40.7114 97.8571 40.7114C110.857 40.7114 119.286 48.2987 119.286 48.2987L121 32H123Z" fill="#F5F747"/>
</svg>
