<svg width="180" height="180" viewBox="0 0 180 180" fill="none" xmlns="http://www.w3.org/2000/svg">
<path d="M125.17 70.8454H121.094C121.346 66.937 121.472 63.8053 121.472 61.4502C121.472 54.3851 119.987 49.4746 117.019 46.7187C114.101 43.9127 110.403 42.5097 105.925 42.5097C99.9371 42.5097 93.7233 44.9399 87.283 49.8003C80.8428 54.6106 75.3082 62.1518 70.6792 72.4238C66.0503 82.6457 63.7358 93.1682 63.7358 103.991C63.7358 114.464 65.8742 122.506 70.1509 128.118C74.478 133.68 79.8868 136.461 86.3774 136.461C95.1824 136.461 103.258 131.2 110.604 120.677C111.358 119.625 112.138 119.099 112.943 119.099C113.597 119.099 114.151 119.324 114.604 119.775C115.057 120.176 115.283 120.652 115.283 121.203C115.283 122.556 113.597 125.212 110.226 129.17C106.906 133.129 102.704 136.411 97.6226 139.016C92.5409 141.672 87.5346 143 82.6038 143C76.6667 143 71.1572 141.447 66.0755 138.34C60.9937 135.283 57.044 130.899 54.2264 125.187C51.4088 119.475 50 112.685 50 104.818C50 93.8447 52.8679 82.9213 58.6038 72.048C64.3899 61.1747 71.6101 52.7817 80.2642 46.869C88.9182 40.9563 97.3711 38 105.623 38C108.591 38 111.535 38.3257 114.453 38.9771C115.711 39.2777 120.893 41.0064 130 44.1632C127.132 52.7817 125.522 61.6757 125.17 70.8454Z" fill="#F5F747"/>
</svg>
