<svg width="180" height="180" viewBox="0 0 180 180" fill="none" xmlns="http://www.w3.org/2000/svg">
<path d="M91.46 142.02C74.66 142.02 61.36 137.773 51.56 129.28C41.8533 120.693 37 108.607 37 93.02C37 83.5 38.54 75.1467 41.62 67.96C44.7933 60.7733 49.2267 55.0333 54.92 50.74C66.2133 42.2467 81.1 38 99.58 38C111.527 38 123.473 39.6333 135.42 42.9C139.993 44.3933 142.28 48.08 142.28 53.96C142.28 61.9867 139.76 66 134.72 66C133.88 66 131.127 65.6267 126.46 64.88C121.793 64.1333 118.527 63.76 116.66 63.76C110.033 63.76 104.9 66.0933 101.26 70.76C97.7133 75.3333 95.94 80.84 95.94 87.28C95.94 93.6267 97.62 99.2267 100.98 104.08C104.34 108.933 108.913 111.453 114.7 111.64C118.62 111.827 125.573 111.92 135.56 111.92C140.413 111.92 143.073 114.207 143.54 118.78C143.82 120.46 143.96 122.187 143.96 123.96C143.96 125.64 143.82 127.367 143.54 129.14C142.98 132.5 140.367 134.973 135.7 136.56C131.033 138.053 124.313 139.313 115.54 140.34C106.767 141.46 98.74 142.02 91.46 142.02Z" fill="#F5F747"/>
</svg>
