<svg width="180" height="180" viewBox="0 0 180 180" fill="none" xmlns="http://www.w3.org/2000/svg">
<path d="M55 90.5C55 79.125 56.75 69.5 60.25 61.625C63.75 53.75 68.5625 47.8681 74.6875 43.9792C80.9097 39.9931 87.9583 38 95.8333 38C105.167 38 112.361 40.1875 117.417 44.5625C122.472 48.9375 125 54.7708 125 62.0625C125 68.3819 123.201 73 119.604 75.9167V76.6458H125V81.0208H103.854V76.6458C115.035 76.6458 120.625 71.7847 120.625 62.0625C120.625 56.2292 118.437 51.5139 114.062 47.9167C109.785 44.2222 103.708 42.375 95.8333 42.375C88.9306 42.375 82.7083 44.2222 77.1667 47.9167C71.625 51.5139 67.25 56.9097 64.0417 64.1042C60.9306 71.2986 59.375 80.0972 59.375 90.5C59.375 100.903 60.9306 109.701 64.0417 116.896C67.25 124.09 71.625 129.535 77.1667 133.229C82.7083 136.826 88.9306 138.625 95.8333 138.625C103.708 138.625 109.785 136.826 114.062 133.229C118.437 129.535 120.625 124.771 120.625 118.938C120.625 109.215 115.035 104.354 103.854 104.354V99.9792H125V104.354H119.604V105.083C123.201 108 125 112.618 125 118.938C125 126.229 122.472 132.063 117.417 136.438C112.361 140.813 105.167 143 95.8333 143C87.9583 143 80.9097 141.056 74.6875 137.167C68.5625 133.181 63.75 127.25 60.25 119.375C56.75 111.5 55 101.875 55 90.5Z" fill="#F5F747"/>
</svg>
