<svg width="180" height="180" viewBox="0 0 180 180" fill="none" xmlns="http://www.w3.org/2000/svg">
<path d="M127.276 38L135 90.2067C133.931 90.2067 132.134 90.1089 129.608 89.9134C127.179 89.7179 124.459 89.5224 121.447 89.3268C118.435 89.0335 115.278 88.7891 111.974 88.5936C108.768 88.398 105.854 88.3003 103.23 88.3003C100.316 88.3003 97.984 88.4958 96.2353 88.8869C94.5836 89.1802 94.0007 89.7668 94.4865 90.6467C94.9722 91.5265 96.5753 92.162 99.2956 92.5531C102.016 92.8464 105.173 92.993 108.768 92.993C111.391 92.993 114.063 92.9441 116.783 92.8464C119.601 92.6508 122.224 92.4553 124.653 92.2598C127.082 91.9665 129.219 91.6732 131.065 91.3799C132.911 90.9888 134.223 90.5978 135 90.2067L128.734 143H115.763C111.391 143 106.679 142.853 101.627 142.56C96.5753 142.169 91.4747 141.436 86.3255 140.36C81.2734 139.285 76.3671 137.672 71.6065 135.521C66.9431 133.37 62.7169 130.486 58.9278 126.869C55.1388 123.154 51.9813 118.608 49.4552 113.23C47.0264 107.853 45.569 101.401 45.0833 93.8729C44.889 90.7444 45.0347 87.2249 45.5205 83.3142C46.0062 79.4036 47.0264 75.3953 48.5808 71.2891C50.2325 67.0852 52.5642 63.0279 55.576 59.1173C58.6849 55.1089 62.7169 51.5405 67.6718 48.412C72.6266 45.2835 78.6502 42.7905 85.7425 40.933C92.932 38.9777 101.433 38 111.246 38H127.276Z" fill="#F5F747"/>
</svg>
