<svg width="180" height="180" viewBox="0 0 180 180" fill="none" xmlns="http://www.w3.org/2000/svg">
<path d="M137.02 65.7285L125.33 70.6504C124.419 67.6882 123.188 64.9766 121.639 62.5156C120.135 60.0547 118.312 57.9583 116.17 56.2266C114.074 54.4492 111.681 53.082 108.992 52.125C106.303 51.1224 103.364 50.6211 100.174 50.6211C96.7559 50.6211 93.6113 51.1908 90.7402 52.3301C87.9147 53.4238 85.3626 54.9505 83.084 56.9102C80.8509 58.8698 78.8913 61.1484 77.2051 63.7461C75.5189 66.3438 74.1061 69.1237 72.9668 72.0859C71.8275 75.0026 70.9844 78.0332 70.4375 81.1777C69.8906 84.3223 69.6172 87.3984 69.6172 90.4062C69.6172 95.1914 70.1641 99.9538 71.2578 104.693C72.3971 109.433 74.1745 113.694 76.5898 117.477C79.0508 121.259 82.2181 124.335 86.0918 126.705C89.9655 129.029 94.6595 130.191 100.174 130.191C103.09 130.191 105.848 129.713 108.445 128.756C111.043 127.753 113.39 126.409 115.486 124.723C117.628 122.991 119.497 120.963 121.092 118.639C122.687 116.314 123.963 113.808 124.92 111.119L136.746 115.836C135.014 120.165 132.645 123.971 129.637 127.252C126.629 130.488 123.188 133.176 119.314 135.318C115.486 137.46 111.362 139.055 106.941 140.104C102.566 141.197 98.1458 141.744 93.6797 141.744C88.849 141.744 84.2005 141.152 79.7344 139.967C75.3138 138.782 71.1895 137.096 67.3613 134.908C63.5332 132.721 60.0469 130.077 56.9023 126.979C53.8034 123.88 51.1374 120.439 48.9043 116.656C46.7168 112.874 45.0078 108.772 43.7773 104.352C42.5924 99.8854 42 95.237 42 90.4062C42 85.5755 42.5924 80.9499 43.7773 76.5293C45.0078 72.0632 46.7168 67.9388 48.9043 64.1562C51.1374 60.3281 53.8034 56.8646 56.9023 53.7656C60.0469 50.6667 63.5332 48.0234 67.3613 45.8359C71.1895 43.6484 75.3138 41.9622 79.7344 40.7773C84.2005 39.5924 88.849 39 93.6797 39C98.3281 39 102.863 39.5469 107.283 40.6406C111.749 41.7344 115.896 43.3978 119.725 45.6309C123.553 47.8184 126.948 50.5983 129.91 53.9707C132.918 57.2975 135.288 61.2168 137.02 65.7285Z" fill="#F5F747"/>
</svg>
