<svg width="180" height="180" viewBox="0 0 180 180" fill="none" xmlns="http://www.w3.org/2000/svg">
<path d="M62.47 143C53.7983 143 46.7896 141.211 41.4439 137.634C35.148 133.46 32 127.259 32 119.031C32 112.472 33.4849 105.973 36.4547 99.5332C39.4245 93.0937 43.2852 86.9523 48.0369 81.109C52.9073 75.2658 58.1935 69.9591 63.8955 65.1891C69.5975 60.2998 75.1213 56.1857 80.467 52.8467C96.6226 42.9489 112.422 38 127.865 38C141.288 38 148 42.6508 148 51.9523C148 60.0613 143.545 67.5145 134.636 74.3118C126.083 80.8705 117.708 84.1499 109.512 84.1499C100.84 84.1499 96.5038 80.8109 96.5038 74.1329C96.5038 69.3629 97.573 66.9779 99.7112 66.9779C100.543 66.9779 100.959 67.5145 100.959 68.5877C100.959 68.707 100.959 68.9455 100.959 69.3032C100.959 69.5417 100.899 69.8399 100.78 70.1976C100.662 70.5554 100.602 70.8535 100.602 71.092C100.602 71.3305 100.602 71.569 100.602 71.8075C100.602 76.4583 103.631 78.7836 109.69 78.7836C115.986 78.7836 123.113 75.7428 131.072 69.661C139.031 63.5792 143.011 57.5571 143.011 51.5945C143.011 45.7513 138.081 42.8296 128.221 42.8296C127.271 42.8296 126.261 42.8893 125.192 43.0085C124.242 43.0085 123.291 43.0681 122.341 43.1874C112.006 44.2606 100.365 48.5537 87.4163 56.0664C82.1894 59.0477 76.8438 62.6848 71.3794 66.9779C66.0338 71.1516 61.1039 75.8024 56.5899 80.9302C52.0758 86.0579 48.3932 91.5434 45.5422 97.3867C42.81 103.23 41.4439 109.312 41.4439 115.632C41.4439 118.971 41.9785 122.131 43.0476 125.112C44.2355 128.094 45.958 130.479 48.2151 132.267C52.0164 135.368 57.3026 136.918 64.0737 136.918C85.575 136.918 106.482 128.332 126.796 111.16C127.271 110.683 127.746 110.445 128.221 110.445C128.934 110.445 129.29 110.445 129.29 110.445C129.409 110.445 129.469 110.862 129.469 111.697C129.469 112.293 129.231 112.83 128.756 113.307C124.123 117.6 119.252 121.416 114.144 124.755C109.036 127.974 103.631 130.956 97.9293 133.698C85.0998 139.899 73.2801 143 62.47 143Z" fill="#F5F747"/>
</svg>
