<svg width="1798" height="180" viewBox="0 0 1798 180" fill="none" xmlns="http://www.w3.org/2000/svg">
<path d="M137.557 65.9668L125.867 70.8887C124.956 67.9264 123.725 65.2148 122.176 62.7539C120.672 60.293 118.849 58.1966 116.707 56.4648C114.611 54.6875 112.218 53.3203 109.529 52.3633C106.84 51.3607 103.901 50.8594 100.711 50.8594C97.293 50.8594 94.1484 51.429 91.2773 52.5684C88.4518 53.6621 85.8997 55.1888 83.6211 57.1484C81.388 59.1081 79.4284 61.3867 77.7422 63.9844C76.056 66.582 74.6432 69.362 73.5039 72.3242C72.3646 75.2409 71.5215 78.2715 70.9746 81.416C70.4277 84.5605 70.1543 87.6367 70.1543 90.6445C70.1543 95.4297 70.7012 100.192 71.7949 104.932C72.9342 109.671 74.7116 113.932 77.127 117.715C79.5879 121.497 82.7552 124.574 86.6289 126.943C90.5026 129.268 95.1966 130.43 100.711 130.43C103.628 130.43 106.385 129.951 108.982 128.994C111.58 127.992 113.927 126.647 116.023 124.961C118.165 123.229 120.034 121.201 121.629 118.877C123.224 116.553 124.5 114.046 125.457 111.357L137.283 116.074C135.551 120.404 133.182 124.209 130.174 127.49C127.166 130.726 123.725 133.415 119.852 135.557C116.023 137.699 111.899 139.294 107.479 140.342C103.104 141.436 98.6829 141.982 94.2168 141.982C89.3861 141.982 84.7376 141.39 80.2715 140.205C75.8509 139.02 71.7266 137.334 67.8984 135.146C64.0703 132.959 60.584 130.316 57.4395 127.217C54.3405 124.118 51.6745 120.677 49.4414 116.895C47.2539 113.112 45.5449 109.01 44.3145 104.59C43.1296 100.124 42.5371 95.4753 42.5371 90.6445C42.5371 85.8138 43.1296 81.1882 44.3145 76.7676C45.5449 72.3014 47.2539 68.1771 49.4414 64.3945C51.6745 60.5664 54.3405 57.1029 57.4395 54.0039C60.584 50.9049 64.0703 48.2617 67.8984 46.0742C71.7266 43.8867 75.8509 42.2005 80.2715 41.0156C84.7376 39.8307 89.3861 39.2383 94.2168 39.2383C98.8652 39.2383 103.4 39.7852 107.82 40.8789C112.286 41.9727 116.434 43.6361 120.262 45.8691C124.09 48.0566 127.485 50.8366 130.447 54.209C133.455 57.5358 135.825 61.4551 137.557 65.9668Z" fill="#F5F747"/>
<path d="M1145.6 56V39.2H1196V56H1145.6ZM1128.8 123.2V56H1145.6V123.2H1128.8ZM1196 72.8V56H1212.8V72.8H1196ZM1196 123.2V106.4H1212.8V123.2H1196ZM1145.6 140V123.2H1196V140H1145.6Z" fill="#F5F747"/>
<path d="M429.4 69.96C418.24 69.96 409.24 78.96 409.24 90C409.24 101.16 418.24 110.16 429.4 110.16H504.16V132H429.4C406.24 132 387.4 113.16 387.4 90C387.4 66.96 406.24 48 429.4 48H504.16V69.96H429.4Z" fill="#F5F747"/>
<path d="M655.844 76.2344H652.68C652.875 73.1875 652.973 70.7461 652.973 68.9102C652.973 63.4023 651.82 59.5742 649.516 57.4258C647.25 55.2383 644.379 54.1445 640.902 54.1445C636.254 54.1445 631.43 56.0391 626.43 59.8281C621.43 63.5781 617.133 69.457 613.539 77.4648C609.945 85.4336 608.148 93.6367 608.148 102.074C608.148 110.238 609.809 116.508 613.129 120.883C616.488 125.219 620.688 127.387 625.727 127.387C632.562 127.387 638.832 123.285 644.535 115.082C645.121 114.262 645.727 113.852 646.352 113.852C646.859 113.852 647.289 114.027 647.641 114.379C647.992 114.691 648.168 115.062 648.168 115.492C648.168 116.547 646.859 118.617 644.242 121.703C641.664 124.789 638.402 127.348 634.457 129.379C630.512 131.449 626.625 132.484 622.797 132.484C618.188 132.484 613.91 131.273 609.965 128.852C606.02 126.469 602.953 123.051 600.766 118.598C598.578 114.145 597.484 108.852 597.484 102.719C597.484 94.1641 599.711 85.6484 604.164 77.1719C608.656 68.6953 614.262 62.1523 620.98 57.543C627.699 52.9336 634.262 50.6289 640.668 50.6289C642.973 50.6289 645.258 50.8828 647.523 51.3906C648.5 51.625 652.523 52.9727 659.594 55.4336C657.367 62.1523 656.117 69.0859 655.844 76.2344Z" fill="#F5F747"/>
<path d="M808.82 142.8C792.02 142.8 778.72 138.553 768.92 130.06C759.213 121.473 754.36 109.387 754.36 93.8C754.36 84.28 755.9 75.9267 758.98 68.74C762.153 61.5533 766.587 55.8133 772.28 51.52C783.573 43.0267 798.46 38.78 816.94 38.78C828.887 38.78 840.833 40.4133 852.78 43.68C857.353 45.1733 859.64 48.86 859.64 54.74C859.64 62.7667 857.12 66.78 852.08 66.78C851.24 66.78 848.487 66.4067 843.82 65.66C839.153 64.9133 835.887 64.54 834.02 64.54C827.393 64.54 822.26 66.8733 818.62 71.54C815.073 76.1133 813.3 81.62 813.3 88.06C813.3 94.4067 814.98 100.007 818.34 104.86C821.7 109.713 826.273 112.233 832.06 112.42C835.98 112.607 842.933 112.7 852.92 112.7C857.773 112.7 860.433 114.987 860.9 119.56C861.18 121.24 861.32 122.967 861.32 124.74C861.32 126.42 861.18 128.147 860.9 129.92C860.34 133.28 857.727 135.753 853.06 137.34C848.393 138.833 841.673 140.093 832.9 141.12C824.127 142.24 816.1 142.8 808.82 142.8Z" fill="#F5F747"/>
<path d="M1015.8 40.52V72.2H1014.12C1007.52 60.32 997.32 53.96 984.84 53.96C947.04 53.96 961.8 129.68 1002.6 129.68C1010.4 129.68 1017.24 123.2 1017.24 109.28C1017.24 95.72 1008.12 77.36 1008.12 77.36L1009.8 76.52C1013.52 84.2 1019.16 98.24 1019.16 109.16C1019.16 127.64 1007.76 135.32 994.44 135.32C966.6 135.32 957 105.8 957 91.76C957 62.36 974.52 47.96 994.68 47.96C1005.6 47.96 1012.68 54.44 1012.68 54.44L1014.12 40.52H1015.8Z" fill="#F5F747"/>
<path d="M1543.96 57.12C1542.6 56.56 1541.08 56.16 1539.4 55.92C1537.8 55.6 1535.84 55.44 1533.52 55.44C1530.24 55.44 1527 56.04 1523.8 57.24C1520.68 58.44 1517.88 60.4 1515.4 63.12C1513 65.84 1511.04 69.4 1509.52 73.8C1508.08 78.2 1507.36 83.6 1507.36 90C1507.36 95.76 1508 100.8 1509.28 105.12C1510.64 109.44 1512.48 113.04 1514.8 115.92C1517.2 118.8 1520.04 120.96 1523.32 122.4C1526.68 123.84 1530.4 124.56 1534.48 124.56C1536.56 124.56 1538.48 124.4 1540.24 124.08C1542.08 123.68 1543.76 123.16 1545.28 122.52V110.52H1554.16V126.72L1554.28 126.96C1551.88 128.8 1548.84 130.36 1545.16 131.64C1541.48 132.84 1537 133.44 1531.72 133.44C1526.68 133.44 1522 132.6 1517.68 130.92C1513.44 129.16 1509.76 126.52 1506.64 123C1503.52 119.48 1501.08 115 1499.32 109.56C1497.64 104.04 1496.8 97.52 1496.8 90C1496.8 82.16 1497.76 75.52 1499.68 70.08C1501.6 64.56 1504.2 60.08 1507.48 56.64C1510.76 53.12 1514.56 50.56 1518.88 48.96C1523.28 47.36 1527.96 46.56 1532.92 46.56C1535.64 46.56 1538 46.68 1540 46.92C1542 47.08 1543.76 47.36 1545.28 47.76C1546.8 48.08 1548.12 48.52 1549.24 49.08C1550.44 49.64 1551.6 50.28 1552.72 51H1552.84V69.96H1543.96V57.12Z" fill="#F5F747"/>
<path d="M1689.4 128.04C1683.56 128.04 1678.84 126.84 1675.24 124.44C1671 121.64 1668.88 117.48 1668.88 111.96C1668.88 107.56 1669.88 103.2 1671.88 98.88C1673.88 94.56 1676.48 90.44 1679.68 86.52C1682.96 82.6 1686.52 79.04 1690.36 75.84C1694.2 72.56 1697.92 69.8 1701.52 67.56C1712.4 60.92 1723.04 57.6 1733.44 57.6C1742.48 57.6 1747 60.72 1747 66.96C1747 72.4 1744 77.4 1738 81.96C1732.24 86.36 1726.6 88.56 1721.08 88.56C1715.24 88.56 1712.32 86.32 1712.32 81.84C1712.32 78.64 1713.04 77.04 1714.48 77.04C1715.04 77.04 1715.32 77.4 1715.32 78.12C1715.32 78.2 1715.32 78.36 1715.32 78.6C1715.32 78.76 1715.28 78.96 1715.2 79.2C1715.12 79.44 1715.08 79.64 1715.08 79.8C1715.08 79.96 1715.08 80.12 1715.08 80.28C1715.08 83.4 1717.12 84.96 1721.2 84.96C1725.44 84.96 1730.24 82.92 1735.6 78.84C1740.96 74.76 1743.64 70.72 1743.64 66.72C1743.64 62.8 1740.32 60.84 1733.68 60.84C1733.04 60.84 1732.36 60.88 1731.64 60.96C1731 60.96 1730.36 61 1729.72 61.08C1722.76 61.8 1714.92 64.68 1706.2 69.72C1702.68 71.72 1699.08 74.16 1695.4 77.04C1691.8 79.84 1688.48 82.96 1685.44 86.4C1682.4 89.84 1679.92 93.52 1678 97.44C1676.16 101.36 1675.24 105.44 1675.24 109.68C1675.24 111.92 1675.6 114.04 1676.32 116.04C1677.12 118.04 1678.28 119.64 1679.8 120.84C1682.36 122.92 1685.92 123.96 1690.48 123.96C1704.96 123.96 1719.04 118.2 1732.72 106.68C1733.04 106.36 1733.36 106.2 1733.68 106.2C1734.16 106.2 1734.4 106.2 1734.4 106.2C1734.48 106.2 1734.52 106.48 1734.52 107.04C1734.52 107.44 1734.36 107.8 1734.04 108.12C1730.92 111 1727.64 113.56 1724.2 115.8C1720.76 117.96 1717.12 119.96 1713.28 121.8C1704.64 125.96 1696.68 128.04 1689.4 128.04Z" fill="#F5F747"/>
<path d="M1378.4 48.44L1384.76 91.16C1383.88 91.16 1382.4 91.08 1380.32 90.92C1378.32 90.76 1376.08 90.6 1373.6 90.44C1371.12 90.2 1368.52 90 1365.8 89.84C1363.16 89.68 1360.76 89.6 1358.6 89.6C1356.2 89.6 1354.28 89.76 1352.84 90.08C1351.48 90.32 1351 90.8 1351.4 91.52C1351.8 92.24 1353.12 92.76 1355.36 93.08C1357.6 93.32 1360.2 93.44 1363.16 93.44C1365.32 93.44 1367.52 93.4 1369.76 93.32C1372.08 93.16 1374.24 93 1376.24 92.84C1378.24 92.6 1380 92.36 1381.52 92.12C1383.04 91.8 1384.12 91.48 1384.76 91.16L1379.6 134.36H1368.92C1365.32 134.36 1361.44 134.24 1357.28 134C1353.12 133.68 1348.92 133.08 1344.68 132.2C1340.52 131.32 1336.48 130 1332.56 128.24C1328.72 126.48 1325.24 124.12 1322.12 121.16C1319 118.12 1316.4 114.4 1314.32 110C1312.32 105.6 1311.12 100.32 1310.72 94.16C1310.56 91.6 1310.68 88.72 1311.08 85.52C1311.48 82.32 1312.32 79.04 1313.6 75.68C1314.96 72.24 1316.88 68.92 1319.36 65.72C1321.92 62.44 1325.24 59.52 1329.32 56.96C1333.4 54.4 1338.36 52.36 1344.2 50.84C1350.12 49.24 1357.12 48.44 1365.2 48.44H1378.4Z" fill="#F5F747"/>
<path d="M240 90C240 80.64 241.44 72.72 244.32 66.24C247.2 59.76 251.16 54.92 256.2 51.72C261.32 48.44 267.12 46.8 273.6 46.8C281.28 46.8 287.2 48.6 291.36 52.2C295.52 55.8 297.6 60.6 297.6 66.6C297.6 71.8 296.12 75.6 293.16 78V78.6H297.6V82.2H280.2V78.6C289.4 78.6 294 74.6 294 66.6C294 61.8 292.2 57.92 288.6 54.96C285.08 51.92 280.08 50.4 273.6 50.4C267.92 50.4 262.8 51.92 258.24 54.96C253.68 57.92 250.08 62.36 247.44 68.28C244.88 74.2 243.6 81.44 243.6 90C243.6 98.56 244.88 105.8 247.44 111.72C250.08 117.64 253.68 122.12 258.24 125.16C262.8 128.12 267.92 129.6 273.6 129.6C280.08 129.6 285.08 128.12 288.6 125.16C292.2 122.12 294 118.2 294 113.4C294 105.4 289.4 101.4 280.2 101.4V97.8H297.6V101.4H293.16V102C296.12 104.4 297.6 108.2 297.6 113.4C297.6 119.4 295.52 124.2 291.36 127.8C287.2 131.4 281.28 133.2 273.6 133.2C267.12 133.2 261.32 131.6 256.2 128.4C251.16 125.12 247.2 120.24 244.32 113.76C241.44 107.28 240 99.36 240 90Z" fill="#F5F747"/>
</svg>
