<svg width="180" height="180" viewBox="0 0 180 180" fill="none" xmlns="http://www.w3.org/2000/svg">
<path d="M112.612 50.7624C110.979 50.0856 109.154 49.6022 107.138 49.3122C105.217 48.9254 102.864 48.732 100.079 48.732C96.142 48.732 92.2526 49.4572 88.4113 50.9075C84.666 52.3577 81.3048 54.7265 78.3278 58.0138C75.4468 61.3011 73.0939 65.6036 71.2693 70.9213C69.5407 76.239 68.6764 82.7652 68.6764 90.5C68.6764 97.4613 69.4447 103.552 70.9812 108.773C72.6138 113.994 74.8225 118.345 77.6075 121.826C80.4885 125.307 83.8977 127.917 87.8351 129.657C91.8685 131.398 96.334 132.268 101.232 132.268C103.729 132.268 106.033 132.075 108.146 131.688C110.355 131.204 112.372 130.576 114.196 129.802V115.3H124.856V134.878L125 135.169C122.119 137.392 118.47 139.278 114.052 140.825C109.635 142.275 104.257 143 97.9186 143C91.8685 143 86.2505 141.985 81.0647 139.954C75.9749 137.827 71.5574 134.637 67.8121 130.383C64.0668 126.128 61.1378 120.714 59.0251 114.139C57.0084 107.468 56 99.5884 56 90.5C56 81.0249 57.1524 73 59.4572 66.4254C61.762 59.7541 64.8831 54.3398 68.8205 50.1823C72.7578 45.9282 77.3194 42.8342 82.5052 40.9005C87.7871 38.9668 93.405 38 99.3591 38C102.624 38 105.457 38.145 107.858 38.4351C110.259 38.6285 112.372 38.9669 114.196 39.4503C116.021 39.837 117.605 40.3688 118.95 41.0456C120.39 41.7224 121.783 42.4959 123.127 43.366H123.271V66.2804H112.612V50.7624Z" fill="#F5F747"/>
</svg>
