<svg width="1620" height="180" viewBox="0 0 1620 180" fill="none" xmlns="http://www.w3.org/2000/svg">
<path fill-rule="evenodd" clip-rule="evenodd" d="M149.997 0H0V30H30V60H59.9971L59.9971 90H29.9971V60H0V150H30V180H120V150H150V180L180 180V0H179.997V30H149.997V0ZM89.9971 90H59.9971L59.9971 120H29.9971V150H59.9971V120H89.9971V150H119.997V120H89.9971V90ZM89.9971 90V60H119.997V90H89.9971ZM150 30H120V60H150V30Z" fill="#0D2CD2"/>
<path fill-rule="evenodd" clip-rule="evenodd" d="M329.997 0H180V30H210V60H239.997L239.997 90H209.997V60H180V150H210V180H300V150H330V180L360 180V0H359.997V30H329.997V0ZM269.997 90H239.997L239.997 120H209.997V150H239.997V120H269.997V150H299.997V120H269.997V90ZM269.997 90V60H299.997V90H269.997ZM330 30H300V60H330V30Z" fill="#0D2CD2"/>
<path fill-rule="evenodd" clip-rule="evenodd" d="M869.997 0H720V30H750V60H779.997L779.997 90H749.997V60H720V150H750V180H840V150H870V180L900 180V0H899.997V30H869.997V0ZM809.997 90H779.997L779.997 120H749.997V150H779.997V120H809.997V150H839.997V120H809.997V90ZM809.997 90V60H839.997V90H809.997ZM870 30H840V60H870V30Z" fill="#0D2CD2"/>
<path fill-rule="evenodd" clip-rule="evenodd" d="M689.997 0H540V30H570V60H599.997L599.997 90H569.997V60H540V150H570V180H660V150H690V180L720 180V0H719.997V30H689.997V0ZM629.997 90H599.997L599.997 120H569.997V150H599.997V120H629.997V150H659.997V120H629.997V90ZM629.997 90V60H659.997V90H629.997ZM690 30H660V60H690V30Z" fill="#0D2CD2"/>
<path fill-rule="evenodd" clip-rule="evenodd" d="M509.997 0H360V30H390V60H419.997L419.997 90H389.997V60H360V150H390V180H480V150H510V180L540 180V0H539.997V30H509.997V0ZM449.997 90H419.997L419.997 120H389.997V150H419.997V120H449.997V150H479.997V120H449.997V90ZM449.997 90V60H479.997V90H449.997ZM510 30H480V60H510V30Z" fill="#0D2CD2"/>
<path fill-rule="evenodd" clip-rule="evenodd" d="M1050 0H900V30H930V60H959.997L959.997 90H929.997V60H900V150H930V180H1020V150H1050V180L1080 180V0H1080V30H1050V0ZM989.997 90H959.997L959.997 120H929.997V150H959.997V120H989.997V150H1020V120H989.997V90ZM989.997 90V60H1020V90H989.997ZM1050 30H1020V60H1050V30Z" fill="#0D2CD2"/>
<path fill-rule="evenodd" clip-rule="evenodd" d="M1230 0H1080V30H1110V60H1140L1140 90H1110V60H1080V150H1110V180H1200V150H1230V180L1260 180V0H1260V30H1230V0ZM1170 90H1140L1140 120H1110V150H1140V120H1170V150H1200V120H1170V90ZM1170 90V60H1200V90H1170ZM1230 30H1200V60H1230V30Z" fill="#0D2CD2"/>
<path fill-rule="evenodd" clip-rule="evenodd" d="M1410 0H1260V30H1290V60H1320L1320 90H1290V60H1260V150H1290V180H1380V150H1410V180L1440 180V0H1440V30H1410V0ZM1350 90H1320L1320 120H1290V150H1320V120H1350V150H1380V120H1350V90ZM1350 90V60H1380V90H1350ZM1410 30H1380V60H1410V30Z" fill="#0D2CD2"/>
<path fill-rule="evenodd" clip-rule="evenodd" d="M1590 0H1440V30H1470V60H1500L1500 90H1470V60H1440V150H1470V180H1560V150H1590V180L1620 180V0H1620V30H1590V0ZM1530 90H1500L1500 120H1470V150H1500V120H1530V150H1560V120H1530V90ZM1530 90V60H1560V90H1530ZM1590 30H1560V60H1590V30Z" fill="#0D2CD2"/>
</svg>
