<svg width="5541" height="180" viewBox="0 0 5541 180" fill="none" xmlns="http://www.w3.org/2000/svg">
<path d="M1766.71 0V179.728H1736.75V149.774H1646.89V119.819H1736.75V29.9547H1646.89V0H1766.71ZM1646.89 119.819H1616.93V29.9547H1646.89V119.819ZM1616.93 179.728V149.774H1646.89V179.728H1616.93Z" fill="black"/>
<path d="M1467.23 29.9547V0H1557.09V29.9547H1467.23ZM1437.27 179.728V29.9547H1467.23V119.819H1557.09V29.9547H1587.05V179.728H1557.09V149.774H1467.23V179.728H1437.27Z" fill="black"/>
<path d="M1257.61 179.728V0H1287.56V59.9095H1377.42V0H1407.38V179.728H1377.42V89.8642H1287.56V179.728H1257.61Z" fill="black"/>
<path d="M1197.77 149.774V179.728H1077.95V0H1107.9V59.9095H1197.77V89.8642H1107.9V149.774H1197.77ZM1197.77 89.8642H1227.72V149.774H1197.77V89.8642Z" fill="black"/>
<path d="M958.207 0H988.162V29.9547H958.207V0ZM928.253 59.9095V29.9547H958.207V59.9095H928.253ZM988.162 29.9547H1018.12V59.9095H988.162V29.9547ZM898.298 59.9095H928.253V179.728H898.298V59.9095ZM1018.12 59.9095H1048.07V179.728H1018.12V59.9095Z" fill="black"/>
<path d="M748.586 29.9547V0H838.45V29.9547H748.586ZM718.631 179.728V29.9547H748.586V119.819H838.45V29.9547H868.404V179.728H838.45V149.774H748.586V179.728H718.631Z" fill="black"/>
<path d="M538.975 179.728V0H658.794V29.9547H568.929V59.9095H658.794V89.8642H568.929V149.774H658.794V179.728H538.975ZM658.794 59.9095V29.9547H688.748V59.9095H658.794ZM658.794 149.774V89.8642H688.748V149.774H658.794Z" fill="black"/>
<path d="M449.181 59.9095V89.8642H389.271V179.728H359.316V0H389.271V59.9095H449.181ZM509.09 0V29.9547H479.135V0H509.09ZM479.135 29.9547V59.9095H449.181V29.9547H479.135ZM479.135 119.819H449.181V89.8642H479.135V119.819ZM479.135 179.728V119.819H509.09V179.728H479.135Z" fill="black"/>
<path d="M209.607 0V59.9095H179.652V0H209.607ZM299.471 0H329.426V149.774H299.471V89.8642H209.607V59.9095H299.471V0ZM179.652 119.819H209.607V149.774H179.652V119.819ZM299.471 149.774V179.728H209.607V149.774H299.471Z" fill="black"/>
<path d="M119.819 149.774V179.729H0V0.000244141H119.819V29.955H29.9547V59.9097H119.819V89.8644H29.9547V149.774H119.819ZM119.819 89.8644H149.774V149.774H119.819V89.8644Z" fill="black"/>
<path d="M3653.41 0V179.728H3623.46V149.774H3533.6V119.819H3623.46V29.9547H3533.6V0H3653.41ZM3533.6 119.819H3503.64V29.9547H3533.6V119.819ZM3503.64 179.728V149.774H3533.6V179.728H3503.64Z" fill="black"/>
<path d="M3353.93 29.9547V0H3443.8V29.9547H3353.93ZM3323.98 179.728V29.9547H3353.93V119.819H3443.8V29.9547H3473.75V179.728H3443.8V149.774H3353.93V179.728H3323.98Z" fill="black"/>
<path d="M3144.31 179.728V0H3174.27V59.9095H3264.13V0H3294.09V179.728H3264.13V89.8642H3174.27V179.728H3144.31Z" fill="black"/>
<path d="M3084.48 149.774V179.728H2964.66V0H2994.61V59.9095H3084.48V89.8642H2994.61V149.774H3084.48ZM3084.48 89.8642H3114.43V149.774H3084.48V89.8642Z" fill="black"/>
<path d="M2844.91 0H2874.87V29.9547H2844.91V0ZM2814.96 59.9095V29.9547H2844.91V59.9095H2814.96ZM2874.87 29.9547H2904.82V59.9095H2874.87V29.9547ZM2785 59.9095H2814.96V179.728H2785V59.9095ZM2904.82 59.9095H2934.78V179.728H2904.82V59.9095Z" fill="black"/>
<path d="M2635.29 29.9547V0H2725.16V29.9547H2635.29ZM2605.34 179.728V29.9547H2635.29V119.819H2725.16V29.9547H2755.11V179.728H2725.16V149.774H2635.29V179.728H2605.34Z" fill="black"/>
<path d="M2425.68 179.728V0H2545.5V29.9547H2455.64V59.9095H2545.5V89.8642H2455.64V149.774H2545.5V179.728H2425.68ZM2545.5 59.9095V29.9547H2575.46V59.9095H2545.5ZM2545.5 149.774V89.8642H2575.46V149.774H2545.5Z" fill="black"/>
<path d="M2335.89 59.9095V89.8642H2275.98V179.728H2246.02V0H2275.98V59.9095H2335.89ZM2395.8 0V29.9547H2365.84V0H2395.8ZM2365.84 29.9547V59.9095H2335.89V29.9547H2365.84ZM2365.84 119.819H2335.89V89.8642H2365.84V119.819ZM2365.84 179.728V119.819H2395.8V179.728H2365.84Z" fill="black"/>
<path d="M2096.31 0V59.9095H2066.36V0H2096.31ZM2186.18 0H2216.13V149.774H2186.18V89.8642H2096.31V59.9095H2186.18V0ZM2066.36 119.819H2096.31V149.774H2066.36V119.819ZM2186.18 149.774V179.728H2096.31V149.774H2186.18Z" fill="black"/>
<path d="M2006.53 149.774V179.729H1886.71V0.000244141H2006.53V29.955H1916.66V59.9097H2006.53V89.8644H1916.66V149.774H2006.53ZM2006.53 89.8644H2036.48V149.774H2006.53V89.8644Z" fill="black"/>
<path d="M5540.12 0V179.728H5510.17V149.774H5420.3V119.819H5510.17V29.9547H5420.3V0H5540.12ZM5420.3 119.819H5390.35V29.9547H5420.3V119.819ZM5390.35 179.728V149.774H5420.3V179.728H5390.35Z" fill="black"/>
<path d="M5240.64 29.9547V0H5330.51V29.9547H5240.64ZM5210.69 179.728V29.9547H5240.64V119.819H5330.51V29.9547H5360.46V179.728H5330.51V149.774H5240.64V179.728H5210.69Z" fill="black"/>
<path d="M5031.02 179.728V0H5060.97V59.9095H5150.84V0H5180.79V179.728H5150.84V89.8642H5060.97V179.728H5031.02Z" fill="black"/>
<path d="M4971.18 149.774V179.728H4851.36V0H4881.32V59.9095H4971.18V89.8642H4881.32V149.774H4971.18ZM4971.18 89.8642H5001.14V149.774H4971.18V89.8642Z" fill="black"/>
<path d="M4731.62 0H4761.58V29.9547H4731.62V0ZM4701.67 59.9095V29.9547H4731.62V59.9095H4701.67ZM4761.58 29.9547H4791.53V59.9095H4761.58V29.9547ZM4671.71 59.9095H4701.67V179.728H4671.71V59.9095ZM4791.53 59.9095H4821.49V179.728H4791.53V59.9095Z" fill="black"/>
<path d="M4522 29.9547V0H4611.86V29.9547H4522ZM4492.04 179.728V29.9547H4522V119.819H4611.86V29.9547H4641.82V179.728H4611.86V149.774H4522V179.728H4492.04Z" fill="black"/>
<path d="M4312.39 179.728V0H4432.21V29.9547H4342.34V59.9095H4432.21V89.8642H4342.34V149.774H4432.21V179.728H4312.39ZM4432.21 59.9095V29.9547H4462.16V59.9095H4432.21ZM4432.21 149.774V89.8642H4462.16V149.774H4432.21Z" fill="black"/>
<path d="M4222.59 59.9095V89.8642H4162.69V179.728H4132.73V0H4162.69V59.9095H4222.59ZM4282.5 0V29.9547H4252.55V0H4282.5ZM4252.55 29.9547V59.9095H4222.59V29.9547H4252.55ZM4252.55 119.819H4222.59V89.8642H4252.55V119.819ZM4252.55 179.728V119.819H4282.5V179.728H4252.55Z" fill="black"/>
<path d="M3983.02 0V59.9095H3953.07V0H3983.02ZM4072.89 0H4102.84V149.774H4072.89V89.8642H3983.02V59.9095H4072.89V0ZM3953.07 119.819H3983.02V149.774H3953.07V119.819ZM4072.89 149.774V179.728H3983.02V149.774H4072.89Z" fill="black"/>
<path d="M3893.23 149.774V179.729H3773.41V0.000244141H3893.23V29.955H3803.37V59.9097H3893.23V89.8644H3803.37V149.774H3893.23ZM3893.23 89.8644H3923.19V149.774H3893.23V89.8644Z" fill="black"/>
</svg>
