<svg width="117" height="107" viewBox="0 0 117 107" fill="none" xmlns="http://www.w3.org/2000/svg">
<path d="M69.9449 78.9236C68.8011 79.8385 67.2 80.6391 65.1413 81.3253C63.197 82.0116 60.9668 82.3547 58.4506 82.3547C55.1339 82.3547 52.3318 81.9544 50.0444 81.1538C47.8714 80.2388 46.4418 78.752 45.7555 76.6933C41.5238 65.4851 37.9212 55.9923 34.9475 48.2151C31.9739 40.438 29.6293 33.8045 27.9138 28.3147H27.056C26.7129 35.7488 26.4269 42.611 26.1982 48.9014C25.9695 55.0774 25.7407 61.0818 25.512 66.9147C25.2832 72.7476 25.0545 78.6948 24.8258 84.7565C24.597 90.8181 24.2539 97.3944 23.7964 104.485C22.6527 104.943 21.1087 105.343 19.1644 105.686C17.2201 106.029 15.2758 106.201 13.3315 106.201C9.21421 106.201 6.06903 105.515 3.89599 104.142C1.72296 102.77 0.636439 100.368 0.636439 96.9369C0.636439 94.6495 0.75081 91.0468 0.97955 86.1289C1.20829 81.0966 1.49422 75.3209 1.83733 68.8018C2.29481 62.1683 2.75229 55.1917 3.20977 47.872C3.66725 40.438 4.12473 33.1754 4.58221 26.0845C5.15407 18.8792 5.66873 12.2457 6.12621 6.18405C7.04118 4.92597 8.75673 3.6679 11.2729 2.40982C13.9034 1.03738 17.4489 0.351163 21.9093 0.351163C26.7129 0.351163 30.5443 1.15176 33.4035 2.75294C36.2628 4.23976 38.3786 6.7559 39.7511 10.3014C41.6954 14.7618 43.6969 19.7941 45.7555 25.3983C47.9286 31.0024 49.9872 36.7209 51.9315 42.5538C53.9902 48.2723 55.9345 53.4762 57.7644 58.1654H58.4506C62.1105 47.7577 65.7131 37.6359 69.2586 27.8C72.8041 17.9642 75.8921 9.67234 78.5226 2.92449C80.0094 2.1239 81.8966 1.49486 84.184 1.03739C86.5857 0.579905 89.0447 0.351163 91.5608 0.351163C96.1357 0.351163 99.7955 1.03738 102.54 2.40982C105.4 3.78227 107.115 5.78375 107.687 8.41427C108.145 10.5873 108.602 14.0184 109.059 18.7076C109.631 23.3968 110.203 28.8294 110.775 35.0054C111.347 41.1814 111.919 47.6433 112.491 54.3911C113.062 61.0246 113.577 67.5437 114.035 73.9485C114.492 80.3532 114.892 86.1289 115.235 91.2756C115.693 96.4222 115.979 100.482 116.093 103.456C114.492 104.371 112.777 105.057 110.947 105.515C109.231 105.972 107.058 106.201 104.428 106.201C100.996 106.201 98.0799 105.572 95.6782 104.314C93.2764 103.056 91.9611 100.654 91.7324 97.1084C91.2749 87.7301 90.8174 78.8092 90.36 70.3458C90.0168 61.768 89.7309 53.9908 89.5022 47.0142C89.2734 39.9233 89.0447 33.9189 88.816 29.0009H87.9582C86.357 34.1476 84.0696 40.6667 81.096 48.5582C78.1223 56.4498 74.4053 66.5716 69.9449 78.9236Z" fill="#0D2CD2"/>
</svg>
