<svg width="180" height="180" viewBox="0 0 180 180" fill="none" xmlns="http://www.w3.org/2000/svg">
<path fill-rule="evenodd" clip-rule="evenodd" d="M180 90L180 60L180 30L150 30L150 -1.31134e-06L120 -2.62268e-06L120 30L90 30L60 30L60 -5.24537e-06L30 -6.55671e-06L30 30L60 30L60 60L90 60L90 90L60 90L60 120L30 120L30 150L-6.55671e-06 150L-7.86805e-06 180L30 180L30 150L60 150L60 180L90 180L120 180L150 180L150 150L150 120L150 90L180 90ZM150 90L120 90L120 60L150 60L150 90ZM60 150L60 120L90 120L90 150L60 150ZM30 60L30 90L-3.93402e-06 90L-2.62268e-06 60L30 60Z" fill="#F5F747"/>
</svg>
