<svg width="180" height="179" viewBox="0 0 180 179" fill="none" xmlns="http://www.w3.org/2000/svg">
<path fill-rule="evenodd" clip-rule="evenodd" d="M180 30L180 0L150 -1.31134e-06L120 -2.62268e-06L120 30L90 30L90 60L60 60L60 90L60 120L90 120L120 120L120 150L90 150L90 180L120 180L150 180L150 150L150 120L120 120L120 90L120 60L150 60L150 90L180 90L180 60L180 30ZM60 -5.24537e-06L60 30L30 30L30 -6.55671e-06L60 -5.24537e-06ZM30 30L30 60L-2.62268e-06 60L-1.31134e-06 30L30 30ZM30 180L30 150L-6.55671e-06 150L-7.86805e-06 180L30 180Z" fill="#0D2CD2"/>
</svg>
