<svg width="109" height="98" viewBox="0 0 109 98" fill="none" xmlns="http://www.w3.org/2000/svg">
<path d="M69.3537 49.76L69.2711 49.2669L69.3537 50.26V49.76ZM95.9207 49.76L96.4049 49.6351L96.3081 49.26H95.9207V49.76ZM108.365 98V98.5H109.011L108.849 97.8751L108.365 98ZM58.0278 98L57.53 98.0464L57.5723 98.5H58.0278V98ZM54.5322 60.5266L55.03 60.4802L54.0353 60.471L54.5322 60.5266ZM50.3374 98V98.5H50.7845L50.8343 98.0556L50.3374 98ZM0 98L-0.48613 97.883L-0.634556 98.5H0V98ZM11.6056 49.76V49.26H11.2116L11.1194 49.643L11.6056 49.76ZM39.1513 49.76V50.26L39.2318 49.2665L39.1513 49.76ZM13.4233 45.5652L12.9355 45.6748L13.0095 46.0043L13.3428 46.0587L13.4233 45.5652ZM3.216 0.121726V-0.378274H2.59123L2.72816 0.231304L3.216 0.121726ZM50.4772 0.121726L50.9741 0.0663009L50.9246 -0.378274H50.4772V0.121726ZM54.5322 36.4765L54.0353 36.5319L55.0284 36.5376L54.5322 36.4765ZM59.0066 0.121726V-0.378274H58.5644L58.5104 0.0606488L59.0066 0.121726ZM103.192 0.121726L103.683 0.216878L103.798 -0.378274H103.192V0.121726ZM94.3826 45.5652L94.4653 46.0583L94.8075 46.001L94.8735 45.6604L94.3826 45.5652ZM69.3537 50.26H95.9207V49.26H69.3537V50.26ZM95.4366 49.8849L107.881 98.1249L108.849 97.8751L96.4049 49.6351L95.4366 49.8849ZM108.365 97.5H58.0278V98.5H108.365V97.5ZM58.5257 97.9536L55.03 60.4802L54.0343 60.573L57.53 98.0464L58.5257 97.9536ZM54.0353 60.471L49.8405 97.9444L50.8343 98.0556L55.0291 60.5822L54.0353 60.471ZM50.3374 97.5H0V98.5H50.3374V97.5ZM0.48613 98.117L12.0917 49.8769L11.1194 49.643L-0.48613 97.883L0.48613 98.117ZM11.6056 50.26H39.1513V49.26H11.6056V50.26ZM39.2318 49.2665L13.5038 45.0717L13.3428 46.0587L39.0708 50.2535L39.2318 49.2665ZM13.9112 45.4556L3.70385 0.0121489L2.72816 0.231304L12.9355 45.6748L13.9112 45.4556ZM3.216 0.621726H50.4772V-0.378274H3.216V0.621726ZM49.9803 0.177152L54.0353 36.5319L55.0291 36.4211L50.9741 0.0663009L49.9803 0.177152ZM55.0284 36.5376L59.5029 0.182804L58.5104 0.0606488L54.0359 36.4154L55.0284 36.5376ZM59.0066 0.621726H103.192V-0.378274H59.0066V0.621726ZM102.701 0.0265746L93.8918 45.4701L94.8735 45.6604L103.683 0.216878L102.701 0.0265746ZM94.3 45.0721L69.2711 49.2669L69.4364 50.2531L94.4653 46.0583L94.3 45.0721Z" fill="#F726F3"/>
</svg>
