<svg width="135" height="107" viewBox="0 0 135 107" fill="none" xmlns="http://www.w3.org/2000/svg">
<path d="M134.284 8.1979L120.162 32.5276C107.577 31.5489 104.082 25.1169 90.7983 25.2567C75.8369 25.5363 66.7482 39.5189 57.24 54.76H58.3586C63.3924 47.0696 76.1165 30.2904 91.9169 30.2904C111.912 30.2904 122.259 49.4466 108.416 72.9374C95.6922 94.7503 75.4174 105.657 53.3249 105.797C22.703 106.076 0.610434 84.2633 29.2748 36.7224C44.0964 12.113 67.0278 0.647291 91.6372 0.647291C110.793 0.647291 118.204 6.65982 134.284 8.1979ZM44.5158 94.191C48.8504 94.191 58.6383 79.0897 65.6296 66.9249C71.6421 56.4379 79.8918 41.896 75.9767 41.896C72.0616 41.896 63.8118 54.0609 57.3798 65.1071C49.5496 78.5304 40.4609 94.191 44.5158 94.191Z" fill="#06EC05"/>
</svg>
