<svg width="87" height="97" viewBox="0 0 87 97" fill="none" xmlns="http://www.w3.org/2000/svg">
<path d="M25.3286 2.21714V29.5157H43.7586L38.6314 17.5986L40.4329 16.7671L72.0271 75.3829L70.3643 76.3529C70.3643 76.3529 53.5971 46.2829 49.9943 41.4329C44.4514 33.8114 38.4929 31.7329 29.4857 31.7329H25.3286V94.7829H44.8671C49.44 94.7829 53.7357 94.6443 56.6457 94.3671C65.2371 93.8129 71.4729 93.12 74.2443 78.0157C76.6 65.5443 79.2329 38.2457 79.2329 38.2457L81.45 38.3843L75.3529 97H0.385714V95.06C0.385714 95.06 6.76 94.9214 8.56143 94.3671C11.7486 93.5357 12.8571 91.5957 13.2729 88.9629C13.6886 87.1614 13.6886 83.8357 13.6886 81.2029V15.7971C13.6886 13.1643 13.6886 9.83857 13.2729 8.03714C12.8571 5.40429 11.7486 3.46429 8.56143 2.63285C6.76 2.07856 0.385714 1.93999 0.385714 1.93999V-5.08172e-06H67.0386L86.1614 40.0471L84.2214 41.0171L78.4014 28.8229C71.3343 14.4114 61.9114 3.60286 48.3314 2.63285C45.4214 2.35571 42.0957 2.21714 39.0471 2.21714H25.3286Z" fill="#F726F3"/>
</svg>
