<svg width="75" height="85" viewBox="0 0 75 85" fill="none" xmlns="http://www.w3.org/2000/svg">
<path d="M39.8211 17.996L5.28814 36.331L13.9495 8.43472C15.2243 7.60983 16.7991 6.74744 18.6739 5.84756C20.6236 4.87269 22.7233 3.97281 24.973 3.14792C27.2977 2.32303 29.6974 1.64812 32.1721 1.12319C34.6468 0.598258 37.0839 0.335794 39.4836 0.335794C44.433 0.335794 48.6324 1.01071 52.082 2.36053C55.6065 3.71034 58.4936 5.51011 60.7433 7.75981C63.068 9.93452 64.7928 12.4092 65.9176 15.1838C67.0425 17.8835 67.6799 20.6206 67.8299 23.3952C68.0548 26.1699 67.7924 28.7945 67.0425 31.2692C66.3676 33.7439 65.3177 35.8436 63.8929 37.5684C66.8175 39.2931 69.1047 41.6928 70.7545 44.7674C72.4793 47.767 73.5291 51.0291 73.9041 54.5536C74.279 58.0032 73.9041 61.5277 72.7792 65.1272C71.7294 68.7268 69.9296 71.9888 67.3799 74.9134C64.8303 77.8381 61.4557 80.2002 57.2563 82C53.1318 83.8748 48.145 84.8121 42.2957 84.8121C39.5961 84.8121 36.859 84.5872 34.0843 84.1372C31.3847 83.7623 28.76 83.1998 26.2104 82.4499C23.6607 81.775 21.336 81.0251 19.2363 80.2002C17.1366 79.3004 15.3743 78.4005 13.9495 77.5006L0.338793 39.9306L53.8817 65.1272L11.9248 39.1432L39.8211 17.996Z" fill="#F5F747"/>
</svg>
