<svg width="96" height="103" viewBox="0 0 96 103" fill="none" xmlns="http://www.w3.org/2000/svg">
<path d="M95.5566 26.9668L83.8672 31.8887C82.9557 28.9264 81.7253 26.2148 80.1758 23.7539C78.6719 21.293 76.849 19.1966 74.707 17.4648C72.6107 15.6875 70.2181 14.3203 67.5293 13.3633C64.8405 12.3607 61.901 11.8594 58.7109 11.8594C55.293 11.8594 52.1484 12.429 49.2773 13.5684C46.4518 14.6621 43.8997 16.1888 41.6211 18.1484C39.388 20.1081 37.4284 22.3867 35.7422 24.9844C34.056 27.582 32.6432 30.362 31.5039 33.3242C30.3646 36.2409 29.5215 39.2715 28.9746 42.416C28.4277 45.5605 28.1543 48.6367 28.1543 51.6445C28.1543 56.4297 28.7012 61.1921 29.7949 65.9316C30.9342 70.6712 32.7116 74.9323 35.127 78.7148C37.5879 82.4974 40.7552 85.5736 44.6289 87.9434C48.5026 90.2676 53.1966 91.4297 58.7109 91.4297C61.6276 91.4297 64.3848 90.9512 66.9824 89.9941C69.5801 88.9915 71.9271 87.6471 74.0234 85.9609C76.1654 84.2292 78.0339 82.2012 79.6289 79.877C81.224 77.5527 82.5 75.0462 83.457 72.3574L95.2832 77.0742C93.5514 81.4036 91.1816 85.209 88.1738 88.4902C85.166 91.7259 81.7253 94.4147 77.8516 96.5566C74.0234 98.6986 69.8991 100.294 65.4785 101.342C61.1035 102.436 56.6829 102.982 52.2168 102.982C47.3861 102.982 42.7376 102.39 38.2715 101.205C33.8509 100.02 29.7266 98.334 25.8984 96.1465C22.0703 93.959 18.584 91.3158 15.4395 88.2168C12.3405 85.1178 9.67448 81.6771 7.44141 77.8945C5.25391 74.112 3.54492 70.0104 2.31445 65.5898C1.12956 61.1237 0.537109 56.4753 0.537109 51.6445C0.537109 46.8138 1.12956 42.1882 2.31445 37.7676C3.54492 33.3014 5.25391 29.1771 7.44141 25.3945C9.67448 21.5664 12.3405 18.1029 15.4395 15.0039C18.584 11.9049 22.0703 9.26172 25.8984 7.07422C29.7266 4.88672 33.8509 3.20052 38.2715 2.01562C42.7376 0.830729 47.3861 0.238281 52.2168 0.238281C56.8652 0.238281 61.3997 0.785156 65.8203 1.87891C70.2865 2.97266 74.4336 4.63607 78.2617 6.86914C82.0898 9.05664 85.485 11.8366 88.4473 15.209C91.4551 18.5358 93.8249 22.4551 95.5566 26.9668Z" fill="#F5F747"/>
</svg>
