<svg width="125" height="88" viewBox="0 0 125 88" fill="none" xmlns="http://www.w3.org/2000/svg">
<path d="M0.680537 43.5158C0.680537 19.2588 16.072 4.85242 29.3703 5.34494C42.7916 5.34494 49.3176 15.8111 53.9966 21.9677C54.4892 22.4603 54.9817 22.5834 55.3511 22.5834C56.213 22.5834 56.9518 21.7215 56.9518 20.7364C56.5824 5.46807 45.7468 1.65099 36.3888 0.912196H85.6415C76.2835 1.65099 65.6942 4.35989 65.0785 19.2588C64.8322 21.3521 65.571 22.5834 66.5561 22.5834C67.2949 22.5834 68.2799 21.8446 69.265 20.4902C69.7575 19.7514 79.1155 4.72929 94.9995 5.83747C109.406 6.20687 124.059 20.4902 124.059 44.5009C124.059 68.7578 108.667 83.1643 95.3689 82.6717C81.9476 82.6717 75.4216 72.2055 70.7426 66.0489C70.25 65.5564 69.7575 65.3102 69.265 65.3102C68.4031 65.3102 67.6643 66.1721 67.7874 67.1571C68.1568 82.4255 75.2984 86.1194 88.3504 87.1045H39.0977C52.1497 86.1194 59.045 83.6568 59.6607 68.7578C59.907 66.6646 59.1682 65.4333 58.1831 65.4333C57.4443 65.4333 56.4593 66.1721 55.4742 67.5265C54.9817 68.2653 45.6237 83.2874 29.7397 82.1792C15.3332 81.8098 0.680537 67.5265 0.680537 43.5158ZM100.417 79.2241C113.1 73.9294 115.563 57.3066 112.115 44.0083C108.79 28.8631 95.1227 14.703 83.5483 14.703C79.9774 14.703 76.5298 16.0574 73.6977 19.2588C68.1568 26.2774 66.8023 31.0795 60.892 31.0795C56.5824 31.0795 54.1198 27.1393 52.519 25.1692C47.84 19.1357 42.176 8.05385 29.9859 8.05385C28.2621 8.05385 26.4151 8.30011 24.3219 8.79264C11.6393 14.0873 9.17663 30.7101 12.6243 44.0083C15.9489 59.1536 29.6165 73.3137 41.1909 73.3137C44.7617 73.3137 48.2094 71.9593 51.0415 68.7578C56.5824 61.7393 58.3062 56.4447 64.3397 56.9372C69.265 56.9372 70.6194 60.8774 72.2201 62.8475C76.8991 68.881 82.5632 79.9628 94.7533 79.9628C96.4771 79.9628 98.3241 79.7166 100.417 79.2241Z" fill="black"/>
</svg>
