<svg width="108" height="89" viewBox="0 0 108 89" fill="none" xmlns="http://www.w3.org/2000/svg">
<path d="M88.4675 25.815C88.3277 29.5903 86.5099 30.9885 81.4762 35.7426C78.1204 39.0984 75.7433 40.3569 75.6035 44.5516C75.4637 47.3482 77.4212 50.1447 81.8957 51.1235C89.3064 52.8014 96.5774 55.0386 102.17 56.5767C104.687 57.4157 107.344 59.6529 107.344 63.2883C107.344 66.5043 107.484 76.1523 107.344 82.4445C107.204 86.08 104.408 88.7367 101.052 88.7367C96.9969 88.7367 95.319 85.9402 94.6198 83.8428C93.2216 79.648 93.0817 58.9537 83.0143 56.9962C78.6797 56.297 73.7858 62.3096 71.968 64.6866C67.6334 70.2797 63.159 69.8602 63.159 69.8602C63.159 69.8602 29.6007 69.8602 25.6856 69.8602C22.889 69.8602 21.351 68.3221 20.3722 67.2035C19.2536 65.945 5.55061 52.6616 3.17357 50.4243C1.216 48.6066 0.377044 45.8101 0.237218 43.5729C0.0973915 40.4967 0.377044 10.8536 0.377044 6.7986C0.377044 5.40034 0.936348 3.72243 1.91513 2.60382C3.31339 0.925906 4.9913 0.366601 6.52939 0.366601C10.864 0.366601 20.3722 0.366601 25.6856 0.366601C28.9016 0.366601 30.2998 2.32417 31.2786 4.00208C32.2574 5.40034 32.537 8.47651 30.999 10.7137C29.6007 12.5315 20.6518 20.2219 19.5332 23.4379C18.8341 25.815 18.8341 30.7089 18.6943 35.1833C18.5544 41.7551 18.9739 43.1534 19.2536 45.2508C19.3934 47.2083 20.9315 51.1235 25.6856 51.1235C28.2024 51.1235 30.0202 50.1447 31.6981 46.9287C35.6132 39.2383 37.5708 24.4167 39.1089 22.1795C40.0877 20.7812 42.0452 19.383 44.4223 19.383C47.9179 19.5228 49.7357 21.76 50.295 23.0184C51.4136 25.2556 56.0278 43.7127 57.5659 47.3482C58.5447 50.2845 62.0404 51.8226 65.536 50.704C68.1927 49.865 71.2689 45.6703 69.0317 41.6153C68.0529 39.6577 66.375 38.1196 64.2776 36.0223C61.9005 33.6452 60.2226 32.3868 58.2651 30.1496C57.0066 28.7513 55.4685 23.8574 58.8244 21.0609C63.2988 17.1457 73.5061 6.2393 76.1628 3.44278C78.4 1.20556 79.3788 0.506429 82.0355 0.366601C85.1117 0.0869522 88.3277 3.16312 88.4675 6.2393C88.6073 9.73495 88.7471 11.5527 88.4675 25.815Z" fill="#F726F3"/>
</svg>
