<svg width="107" height="98" viewBox="0 0 107 98" fill="none" xmlns="http://www.w3.org/2000/svg">
<path d="M72.9671 81.4971V17.4272C72.9671 12.4347 74.4926 8.45925 77.5436 5.50075C80.5945 2.4498 84.6624 0.92433 89.7474 0.92433C94.7398 0.92433 98.7153 2.4498 101.674 5.50075C104.725 8.45925 106.25 12.4347 106.25 17.4272V81.4971C106.25 86.4896 104.725 90.5113 101.674 93.5623C98.6228 96.5208 94.5549 98 89.47 98C84.4775 98 80.4558 96.5208 77.4049 93.5623C74.4464 90.5113 72.9671 86.4896 72.9671 81.4971ZM0.160386 80.8037V17.4272C0.160386 12.4347 1.68586 8.45925 4.73681 5.50075C7.78776 2.4498 11.8557 0.92433 16.9406 0.92433C21.9331 0.92433 25.9086 2.4498 28.867 5.50075C31.918 8.45925 33.4435 12.4347 33.4435 17.4272V39.4772H40.5161C44.8614 39.4772 48.7907 40.1706 52.3039 41.5574C55.9096 42.9442 58.9605 44.932 61.4567 47.5207C64.0454 50.1093 66.0332 53.2527 67.42 56.9509C68.8068 60.5565 69.5001 64.5782 69.5001 69.016C69.5001 73.3613 68.8068 77.3368 67.42 80.9424C66.0332 84.4556 64.0454 87.5066 61.4567 90.0953C58.9605 92.5915 55.9096 94.533 52.3039 95.9198C48.7907 97.3066 44.8614 98 40.5161 98H17.3566C12.1793 98 8.01889 96.4283 4.87549 93.2849C1.73209 90.1415 0.160386 85.9811 0.160386 80.8037ZM36.2171 64.7169V49.1848H33.4435V64.7169H36.2171Z" fill="#0D2CD2"/>
</svg>
