<svg width="86" height="87" viewBox="0 0 86 87" fill="none" xmlns="http://www.w3.org/2000/svg">
<path d="M20 1.79999V6.6H12.8V59.24H13.6C18.5067 42.8133 25.0667 28.8933 33.28 17.48C41.4933 5.96 50.4 0.199995 60 0.199995C67.7867 0.199995 73.9733 3.66666 78.56 10.6C83.2533 17.5333 85.6 28.7333 85.6 44.2C85.6 58.8133 83.36 69.5333 78.88 76.36C74.5067 83.1867 68.9067 86.6 62.08 86.6C53.3333 86.6 46.56 81.32 41.76 70.76C37.0667 60.0933 34.24 45.4267 33.28 26.76H32.48C27.5733 35.1867 23.3067 44.7867 19.68 55.56C16.16 66.2267 13.8667 76.04 12.8 85H8V11.4C8 9.58666 7.62667 8.36 6.88 7.72C6.24 6.97333 5.01333 6.6 3.2 6.6H0.8V1.79999H20ZM37.6 19.4C38.3467 39.24 40.8 54.6 44.96 65.48C49.12 76.36 54.8267 81.8 62.08 81.8C67.3067 81.8 71.7333 78.76 75.36 72.68C78.9867 66.6 80.8 57.1067 80.8 44.2C80.8 30.3333 78.88 20.36 75.04 14.28C71.2 8.09333 66.1867 5 60 5C52.5333 5 45.0667 9.8 37.6 19.4Z" fill="black"/>
</svg>
