<svg width="77" height="94" viewBox="0 0 77 94" fill="none" xmlns="http://www.w3.org/2000/svg">
<path d="M76.9857 40.3314C76.9857 42.7333 76.4314 45.1352 75.3229 47.5371C74.3067 49.8467 72.7362 51.9252 70.6114 53.7729C69.8724 54.5119 69.1795 55.1586 68.5329 55.7129C67.9786 56.2671 67.1933 56.7752 66.1771 57.2371V87.8614H54.3986V59.87C54.2138 59.87 53.9829 59.87 53.7057 59.87C53.521 59.7776 53.3362 59.7314 53.1514 59.7314C49.4562 59.5467 46.8695 59.4081 45.3914 59.3157C44.0057 59.131 42.9895 58.9462 42.3429 58.7614C40.2181 62.6414 37.8162 66.66 35.1371 70.8171C32.4581 74.9743 29.4095 78.7619 25.9914 82.18C22.5733 85.5981 18.7395 88.4157 14.49 90.6329C10.3329 92.85 5.76 93.9586 0.771429 93.9586V82.18C3.91238 82.18 6.82238 81.3948 9.50143 79.8243C12.2729 78.1614 14.8133 76.0829 17.1229 73.5886C19.4324 71.0019 21.5571 68.1381 23.4971 64.9971C25.5295 61.7638 27.4233 58.5767 29.1786 55.4357C22.8043 52.849 18.0005 49.3386 14.7671 44.9043C11.6262 40.47 10.0557 34.881 10.0557 28.1371C10.0557 22.779 11.3029 18.2986 13.7971 14.6957C16.3838 11.0929 19.6633 8.22905 23.6357 6.10428C27.7005 3.97952 32.2271 2.45524 37.2157 1.53143C42.2967 0.60762 47.3314 0.145715 52.32 0.145715C54.5371 0.145715 56.8929 0.238095 59.3871 0.422854C61.9738 0.515234 64.2371 0.699997 66.1771 0.977141V25.92C66.4543 25.92 66.7776 26.0124 67.1471 26.1971C69.9186 27.3057 72.1819 29.1995 73.9371 31.8786C75.7848 34.4652 76.801 37.2829 76.9857 40.3314ZM44.0057 33.68C45.8533 31.8324 47.6548 30.3543 49.41 29.2457C51.1652 28.0448 52.8281 27.121 54.3986 26.4743C54.3062 22.9638 54.26 20.2848 54.26 18.4371C54.26 16.4971 54.26 15.0652 54.26 14.1414C54.26 13.1252 54.2138 12.5248 54.1214 12.34C51.1652 12.34 47.8395 12.4786 44.1443 12.7557C40.449 12.9405 36.9386 13.5871 33.6129 14.6957C30.3795 15.8043 27.6081 17.5133 25.2986 19.8229C23.0814 22.04 21.9729 25.1348 21.9729 29.1071C21.9729 31.971 22.989 34.8348 25.0214 37.6986C27.0538 40.5624 30.7952 42.9643 36.2457 44.9043C37.6314 42.5948 38.9248 40.47 40.1257 38.53C41.419 36.59 42.7124 34.9733 44.0057 33.68ZM53.29 48.0914C54.2138 48.0914 55.4148 47.999 56.8929 47.8143C58.371 47.5371 59.8029 47.1214 61.1886 46.5671C62.6667 45.9205 63.9138 45.1352 64.93 44.2114C65.9462 43.1952 66.4543 41.9481 66.4543 40.47C66.4543 39.4538 65.9462 38.4376 64.93 37.4214C63.9138 36.3129 62.7591 35.7586 61.4657 35.7586C59.9876 35.7586 58.5095 36.1743 57.0314 37.0057C55.6457 37.8371 54.3062 38.8995 53.0129 40.1929C51.8119 41.3938 50.7033 42.6871 49.6871 44.0729C48.671 45.4586 47.8395 46.7519 47.1929 47.9529L53.29 48.0914Z" fill="#06EC05"/>
</svg>
